<?xml version="1.0" encoding="utf-8"?>
<!-- Generator: Adobe Illustrator 23.0.1, SVG Export Plug-In . SVG Version: 6.00 Build 0)  -->
<svg version="1.1" id="Layer_1" xmlns="http://www.w3.org/2000/svg" xmlns:xlink="http://www.w3.org/1999/xlink" x="0px" y="0px"
	 viewBox="0 0 375 375" style="enable-background:new 0 0 375 375;" xml:space="preserve">
<style type="text/css">
	.st0{fill:none;stroke:#000000;stroke-width:2;stroke-linecap:round;stroke-linejoin:round;stroke-miterlimit:10;}
</style>
<g>
	<path class="st0" d="M148.65,150.61c0.12,0.81,0.42,1.66,0.31,2.44c-0.3,2.08,0.65,3.53,2.03,4.88c3.61,3.52,6.29,7.76,9.24,11.81
		c1.6,2.2,3.23,4.37,4.95,6.47c1.47,1.79,3.22,2.98,5.71,1.78c0.67-0.33,1.42-0.03,2.11,0.28c2.72,1.21,5.21,2.76,7.37,4.84
		c1.44,1.38,1.93,3.02,1.16,4.87c-0.8,1.93-0.13,3.44,1.21,4.71c1.7,1.61,3.78,2.68,5.87,3.73c4.23,2.14,8.47,4.25,12.59,6.59
		c5.7,3.23,10.34,7.84,14.91,12.44c2.57,2.59,5.16,5.16,7.77,7.71c0.47,0.46,1.04,0.99,1.63,1.1c2.49,0.45,3.59,2.36,4.75,4.24
		c2.48,4,4.94,8,7.44,11.99c3.31,5.3,7.67,9.65,12.32,13.77c3.19,2.82,5.72,6.17,8.01,9.8c1.68,2.66,0.01,1.65,1.58,4.29
		c0,0,0.55,2-0.92,3.19c-5.56,4.5-3.69,6.52-3.69,6.52s2.61,3.45,0.53,7.95c-2.62,5.7,9.94,16.14,8.33,24.73
		c-0.41,2.18-1.88,3.47-0.53,5.15c2.08,2.59,4.11,7.34,2.52,9.57c-1.85,2.6-1.22,5.75-1.18,9.72c0.02,2.2,2.01,5.71,2.01,5.71
		s1.46,6.3-0.38,10.06c-1.84,3.76-2.98,0.8-4.83,3.39c-1.85,2.59,0.84,2.39,0.84,2.39c1.31,0.08,1.66,0.32,2.9-0.14
		c2.98-1.11,4.44-3.48,4.65-6.53c0.16-2.44,0.66-4.84,0.36-7.34c-0.21-1.71-0.56-3.36-1.28-4.85c-1.74-3.63-0.98-7,0.81-10.27
		c0.46-0.84,0.55-1.67,0.55-2.47c-0.02-2.88-0.93-5.56-2.51-7.94c-0.65-0.98-0.54-1.77-0.34-2.8c0.84-4.3,0.93-8.43-1.98-12.24
		c-2.05-2.68-4.18-5.4-5.47-8.57c-1.05-2.58-1.57-5.34-1.36-8.12c0.16-2.15-0.62-4.2-0.3-6.36c0.39-2.62,1.97-4.55,3.48-6.48
		c0.46-0.59,1.76-0.54,2.69-0.72c2.16-0.42,3.78-1.73,5.35-3.14c0.83-0.75,0.91-1.83,1.08-2.79c0.97-5.25,1.98-10.49,2.55-15.82
		c0.31-2.88,0.4-5.6-0.31-8.5c-0.6-2.46-0.27-5.19-0.02-7.79c0.35-3.7,0.66-7.4,1.06-11.09c0.35-3.27,0.84-6.52,1.2-9.79
		c0.35-3.09,0.59-6.2,0.92-9.29c0.33-3.16,0.7-6.31,1.06-9.46c0.25-2.18,0.52-4.35,0.76-6.52c0.29-2.67,0.65-5.33,0.85-8
		c0.36-4.66,1.01-9.32,0.76-14.01c-0.04-0.78-0.19-1.58-0.83-2.1c-2.03-1.64-2.38-4.04-2.97-6.34c-1.19-4.62-0.11-9.1,1.04-13.53
		c1.17-4.46,2.72-8.82,3.46-13.39c0.3-1.85,0.07-3.7,0.11-5.54c0.01-0.61-0.08-1.23,0.31-1.8c1.62-2.41,1.3-5.15,1.23-7.83
		c-0.06-2.5-0.24-5-0.37-7.49c-0.24-4.46-0.42-8.92,0.23-13.36c0.47-3.23,1.46-6.34,2.38-9.46c0.27-0.93,0.41-1.86,0.57-2.79
		c0.16-0.95,0.03-1.91-0.49-2.76c-1.66-2.73-1.84-5.7-1.55-8.79c0.33-3.57,1.64-6.93,2.21-10.45c0.48-2.9,0.46-4.78-2.32-5.88
		c-0.9-0.36-1.45-1.27-1.97-2.08c-1.43-2.18-2.89-4.34-4.15-6.63c-1.35-2.45-1.93-5.08-2.14-7.81c-0.09-1.11-0.45-2.11-0.89-3.08
		c-0.55-1.19-1.67-1.94-2.92-1.9c-4.15,0.12-4.66-2.8-4.12-6.04c-1.72-2.55-4.59-3.21-7.22-3.95c-5.64-1.59-11.21-1.04-16.61,1.34
		c-0.65,0.29-1.34,0.61-1.73,1.06c-3.33,3.91-7.43,7.2-9.7,11.95c-0.76,1.59-1.85,2.52-3.57,3c-1.7,0.47-2.82,1.94-4.04,3.11
		c-4.38,4.2-8.69,8.47-12.78,12.96c-1.18,1.3-2.25,2.67-2.75,4.42c-0.39,1.37-1.17,2.54-2.25,3.43c-3.18,2.62-5.01,6.17-6.92,9.69
		c-1.18,2.18-2.29,4.4-3.55,6.54c-1.88,3.21-4.51,5.64-7.9,7.26c-2.47,1.18-4.2,3.08-5.01,5.73c-0.84,2.79-2.9,4.49-5.16,6.08
		c-2.56,1.8-5.21,3.56-7.09,6.1c-1.11,1.5-1.99,3.12-3.39,4.43c-2.26,2.12-4.91,3.61-7.49,5.24c-4.07,2.57-7.24,5.89-9.22,10.34
		c-1.06,2.38-2.97,4.22-5.02,5.7c-3.02,2.18-5.27,5.01-7.35,7.97c-1.83,2.61-4.11,4.7-6.51,6.69c-1.27,1.05-2.53,2.04-3.25,3.61
		c-0.51,1.13-1.64,1.69-2.73,2.14c-5.71,2.37-9.57,6.8-13.3,11.5c-3.59,4.53-7.08,9.14-11.05,13.37c-1.71,1.82-3.53,2.59-5.9,2.44
		c-0.84-0.05-1.65,0.08-2.44,0.35"/>
</g>
</svg>
