<?xml version="1.0" encoding="utf-8"?>
<!-- Generator: Adobe Illustrator 23.0.1, SVG Export Plug-In . SVG Version: 6.00 Build 0)  -->
<svg version="1.1" id="Layer_1" xmlns="http://www.w3.org/2000/svg" xmlns:xlink="http://www.w3.org/1999/xlink" x="0px" y="0px"
	 viewBox="0 0 375 374" style="enable-background:new 0 0 375 374;" xml:space="preserve">
<style type="text/css">
	.st0{fill:none;stroke:#000000;stroke-width:2;stroke-linecap:round;stroke-linejoin:round;stroke-miterlimit:10;}
</style>
<g>
	<path class="st0" d="M255.51,21.76c3.71-1.04-6.25,1.51-6.35,1.81c-0.69,2.02-4.31,1.76-6.22,2.07c-1.3,0.21-2.43,0.87-3.38,1.65
		c-3.37,2.8-7.35,4-11.52,4.84c-5.43,1.1-10.9,2.03-16.2,3.71c-5.05,1.6-9.04,4.62-12.33,8.74c-2.65,3.32-5.13,6.8-8.4,9.58
		c-2.91,2.47-6.28,3.71-10.05,3.87c-3.99,0.17-7.99,0.15-11.99,0.36c-4.88,0.25-9.19,1.95-12.98,5.14
		c-3.29,2.76-6.22,5.88-9.35,8.79c-3.78,3.51-8.17,5.96-12.81,8.1c-5.1,2.35-10.4,4.22-15.4,6.78c-1.6,0.82-2.94,1.88-3.81,3.3
		c0.79,5.18,4.36,8.77,6.92,12.9c3.89,6.27,6.25,13.18,8.53,20.11c0.88,2.68,1.55,5.47,1.91,8.26c0.28,2.17,0.15,4.42-0.06,6.64
		c-0.31,3.18-0.95,6.33-0.86,9.56c0.03,1.05,0.27,2.06,0.72,2.89c2.16,4.08,4.79,7.76,8.86,10.25c4.46,2.73,7.61,6.69,9.53,11.5
		c1.56,3.91,2.74,7.98,4.1,11.97c0.35,1.03,0.74,2.06,1.13,3.08c1.1,2.92,5.91,6.1,8.73,6.78c3.43-3.65,9.92-8.45,13.45-12
		c0.92-0.92,1.91-0.92,2.38-2.09c0.81-1.99,1.33-2.91,3.11-3.71c1.25-0.57,2.95-2.9,4.1-3.55c2.56-1.44,4.92-3.07,6.81-5.36
		c0.45-0.55,1.11-1.03,1.77-1.29c2.9-1.11,5.42-3.28,8.74-3.25c0.54,0.01,2.59-1.4,2.81-1.67c2.55-3.17,2.98-4.42,5.74-7.43
		c2.74-2.98,5.88-3.72,9.76-3.09c6.35,1.02,12.5,2.69,18.45,5.08c0.76,0.31,1.45,0.76,2.13,1.26c2.38,1.77,2.66,3.3,0.44,5.99
		c-1.62,1.95-3.69,3.45-5.78,4.91c-2.88,2-5.91,3.7-9.08,5.17c-3.94,1.84-7.76,1.93-11.69-0.15c-3.58-1.89-7.89-5.15-11.02-7.69
		c-5-0.51-7.42,3.01-8.16,2.57l-8.67,6.76c-5.18,4.26-4.32,4.45-5.43,5.43c-2.55,2.26-5.82,4.41-9.3,8.58
		c-1.72,2.05-7.23,5.4-8.94,7.45l1.91,1.19c2.33,2.57,8.33,7.67,10.73,10.18c0.61,0.64,1.15,1.36,1.62,2.1
		c0.87,1.4,0.69,3.64-0.49,4.83c-1.05,1.06-2.26,1.95-3.38,2.94c-1.75,1.54-2.07,3.1-1.14,5.34c1.28,3.08,3.36,5.62,5.53,8.08
		c0.57,0.64,1.44,0.95,2.23,1.35c1.58,0.78,2.84,2,3.73,3.54c0.92,1.58,0.57,3.19-0.17,4.68c-1,2.03-2.3,3.94-3.18,6.02
		c-1.36,3.2-1.42,6.61-1.01,10.03c0.78,6.48,3.68,12.25,6.2,18.12c1.02,2.38,2.61,4.5,4.3,6.52c2.81,3.34,4.21,7.4,5.52,11.49
		c0.46,1.44,1.08,2.81,1.95,4.05c0.94,1.34,2.06,2.2,3.89,1.98c2.92-0.35,3.86,0.23,4.83,3.06c1.42,4.14,2.6,8.36,3.58,12.63
		c0.8,3.5,1.68,6.99,2.22,10.54c0.33,2.13,0.53,4.32,0.66,6.47c0.16,2.82,0.53,5.61,0.7,8.42c0.06,1.01,0.81,5.9,0.17,6.71"/>
</g>
</svg>
