<svg id="Layer_1" data-name="Layer 1" xmlns="http://www.w3.org/2000/svg" viewBox="0 0 325.07 327.09"><defs><style>.cls-1{fill:none;stroke:#000;stroke-linecap:round;stroke-linejoin:round;stroke-width:2px;}</style></defs><title>svg_E</title><path class="cls-1" d="M242.59,345.2a26.58,26.58,0,0,1,3.6-1.58A2.56,2.56,0,0,0,248,342.1c1.16-2.54,2.44-5,3.39-7.67a9.49,9.49,0,0,1,4.78-5.66,33.53,33.53,0,0,0,8.31-6c3.49-3.3,7.17-6.4,10.26-10.11a6.67,6.67,0,0,0,1.82-5.72,5.7,5.7,0,0,1,.76-4.72c2.8-3.71,5.5-7.51,9.62-9.93a3.72,3.72,0,0,0,1.64-2.11,5.85,5.85,0,0,1,2.58-3.12,26.86,26.86,0,0,0,8.82-8.28,4.54,4.54,0,0,1,2.6-2.26,5.75,5.75,0,0,0,3.74-3.12c.71-1.2,1.46-2.37,2.11-3.59a5.76,5.76,0,0,1,4.25-3.25,4.16,4.16,0,0,0,2.12-1.14c2.23-2,4.3-4.26,7-5.7,1.89-1,3.8-2,5.7-2.94,2.55-1.29,4.82-2.82,5.9-5.69a7.78,7.78,0,0,1,1.91-2.63,94.39,94.39,0,0,1,8.14-6.68c2.86-2.28,5.82-4.45,8.16-7.31s2.88-7.67-.82-10.27a12.55,12.55,0,0,1-4.23-6c-.86-2.18-1.68-4.38-2.63-6.51-.68-1.54-1-3.37-2.91-4.08a75.33,75.33,0,0,0-8.63-2.77,16.32,16.32,0,0,0-7-.66c-.37.07-.79-.09-1.13,0-1.25.41-1.89-.13-2.65-1.13-3.83-5-8.65-9.15-13.18-13.52-9.27-8.92-18.74-17.63-27.34-27.23-2.83-3.16-5.27-6.56-6.34-10.75-.44-1.7-1-3.37-1.45-5.06-1.31-4.57-4.35-7-9-7.29a60.28,60.28,0,0,0-13.68.8c-4.26-.91-13.41,7.22-15.79,5.7L224,158.35s-4.61,8.07-3.46,11.53a21.48,21.48,0,0,0-8.07,6.53c-2.18,2.9-.7,4-3.19,7.45-.84,1.18-2,1.11-6.49,5.37-3.83,3.6-5.35,4.79-6.37,6.14-2.84,3.78-1.76,6.3-4.28,10.35-3,4.74-4.68,3.71-11.38,11.15a69.24,69.24,0,0,1-5.35,5.73,53.44,53.44,0,0,1-5.54,4.5c0-1.07-1.08-3.29-.17-3.95,1.35-1,2.38-3.21,3.48-4.4a67.4,67.4,0,0,1,5.68-5.54c3.3-2.9,7.14-3.45,9-7.5-.41-3.56,3.13-7.1,4.63-10.17a21,21,0,0,1,8.86-9.48,11.11,11.11,0,0,0,3.66-4.09A100.28,100.28,0,0,1,213,171.18c1.51-1.8,1.95-3.63,3.06-5.71.12-.22,2.72-3.74,2.76-4,.77-5.35,2.16-3.26,5.73-7.13,2.4-2.59,2.52-5.4,4.95-8a38.17,38.17,0,0,0,3.24-3.89c.78-1.63,2.74,0,4.35-.35a11.43,11.43,0,0,0,3.72-1.69,4.17,4.17,0,0,0,2.2-2.88,7.68,7.68,0,0,1,3.68-4.92,16.52,16.52,0,0,0,3.27-2.58,2.78,2.78,0,0,0,.51-3.61,55.7,55.7,0,0,0-8.51-11.7c-4.55-4.82-9.94-8.65-15.12-12.74-2.75-2.17-5.64-4.19-8.19-6.62-.34-.33-.83-.67-.91-1-.61-2.63-2.73-4.1-4.45-5.84-2.83-2.87-5.87-5.55-8.58-8.52-1.87-2.07-4.27-2.51-6.72-3.06a21.39,21.39,0,0,1-4.89-1.29,3.81,3.81,0,0,1-2.44-3.76,3.5,3.5,0,0,0-1-2.6A71.08,71.08,0,0,0,180.2,61a3.5,3.5,0,0,0-1.46-.79c-3.38-.33-4.88-2.8-6.17-5.41-2.46-5-4.89-9.94-7.16-15a32.32,32.32,0,0,0-13.07-14.46c-2.42-1.49-5-2.78-7.49-4.09a10.18,10.18,0,0,0-6-1,38.72,38.72,0,0,1-5.7,0c-3.52-.1-5.22.47-5.45,4.58-.2,3.53-1.92,5.7-4.64,7.5-1.72,1.14-3.38,2.37-5.05,3.58a7.16,7.16,0,0,0-2.93,3.58c-.93,3-3.09,5-5.38,7Q102.9,52.24,96.17,58a10.29,10.29,0,0,0-2.26,2.45c-1.87,3.17-4.84,5-7.85,6.82a4.37,4.37,0,0,0-2.47,3.26c-.37,2.9-2.27,4.75-4.71,6-3.85,2-6.61,5.07-9.29,8.32-2.47,3-4.59,6.31-7.79,8.66A7.54,7.54,0,0,1,59.17,95a8,8,0,0,0-5.34,4.14C52,102.42,49,104.6,46,106.76a31.14,31.14,0,0,0-8,7.79,3,3,0,0,0-.18,3.59,6,6,0,0,1-.81,7.8c-1.54,1.68-3.56,2.74-5.36,4.09-.47.35-.89,0-1.31,0" transform="translate(-29.35 -19.11)"/></svg>