<?xml version="1.0" encoding="utf-8"?>
<!-- Generator: Adobe Illustrator 23.0.1, SVG Export Plug-In . SVG Version: 6.00 Build 0)  -->
<svg version="1.1" xmlns="http://www.w3.org/2000/svg" xmlns:xlink="http://www.w3.org/1999/xlink" x="0px" y="0px"
	 viewBox="0 0 375 371.5" style="enable-background:new 0 0 375 371.5;" xml:space="preserve">
<style type="text/css">
	.st0{fill:none;stroke:#000000;stroke-width:2;stroke-linecap:round;stroke-linejoin:round;stroke-miterlimit:10;}
</style>
<g id="Layer_1">
	<g>
		<path class="st0" d="M353.67,169.34c-0.68,0.59-1.37,7.36-2.2,7.74c-2.08,0.95-3.47,2.46-4.58,4.51
			c-2.52,4.67-5.26,9.24-6.66,14.4c-1.01,3.71-1.75,7.5-2.62,11.25c-0.36,1.54-0.96,3.05-2.35,3.85c-1.94,1.11-2.44,2.89-2.83,4.83
			c-0.72,3.62-1.26,7.31-3.63,10.35c-1.4,1.79-2.82,3.56-4.27,5.31c-2.97,3.6-4.98,7.75-6.97,11.92c-3.27,6.83-6.38,13.73-9.34,20.7
			c-2.06,4.85-4.28,9.62-5.95,14.63c-0.77,2.32-1.18,4.69-1.29,7.12c-0.08,1.68-0.62,3.29-1.33,4.77c-0.74,1.54-2.4,1.56-3.83,1.42
			c-3.36-0.33-6.67-1.07-9.97-1.78c-2.74-0.59-5.49-1.12-8.28-1.26c-1.76-0.08-3.54,0.21-5.3,0.35c-0.99,0.08-1.98,0.19-2.98,0.25
			c-1.87,0.12-3.45-0.44-4.66-1.94c-1.43-1.77-3.24-2.75-5.56-3.02c-1.82-0.22-3.4,0.08-4.65,1.36c-1.7,1.74-3.51,2.06-5.72,1.04
			c-1.56-0.72-3.19-1.29-4.39-2.61c-1.46-1.61-3.35-2.17-5.44-2.33c-2.12-0.17-4.27-0.05-6.34-0.64c-3.26-0.93-6.06-2.75-8.79-4.67
			c-3.7-2.59-7.33-5.27-11.01-7.88c-2.32-1.65-4.74-3.13-7.64-3.48c-1.07-0.13-2.16-0.14-3.24-0.26c-2.3-0.24-3.54-1.57-4.29-3.64
			c-1.23-3.4-1.52-6.95-1.91-10.49c-0.32-2.93-0.38-5.89-0.91-8.8c-0.52-2.85,0.18-3.85,3.09-4.92c2.1-0.77,4.36-1.09,6.34-2.2
			c5-2.8,8.78-6.6,9.54-12.55c0.33-2.57-0.18-5.17-0.44-7.76c-0.39-3.78-1-7.57-0.17-11.39c0.35-1.64,0.91-3.21,1.45-4.78
			c0.97-2.83,1.31-5.67,1.09-8.68c-0.19-2.56-0.36-5.19,0.3-7.77c0.43-1.72,1.48-3.06,2.37-4.52c0.32-0.52,0.75-0.97,1.16-1.43
			c2.79-3.1,3.67-6.84,3.61-10.87c-0.04-2.99,0.8-5.78,1.81-8.55c1.98-5.46,4.32-10.76,6.99-15.92c0.82-1.58,1.99-2.83,3.38-3.86
			c2-1.48,2.69-3.44,2.45-5.84c-0.15-1.51-0.26-3.02-0.39-4.53c0,0-3.86-9.52-8.99,0c-2.84,5.36-8.82,15.85-10.8,21.62
			c-1.73,5.04-2.69,10.27-3.48,15.53c-0.14,0.95-0.07,1.92,0.45,2.87c0.37,0.66,0.3,1.51,0.06,2.31c-0.47,1.55-0.99,3.07-1.7,4.52
			c-2.67,5.48-5.53,10.88-7.76,16.57c-1.89,4.83-3.39,9.8-4.93,14.75c-2.92,9.41-5.38,18.96-8.78,28.22c-0.48,1.3-1.13,2.56-1.21,4
			c-0.02,0.27-0.54,0.48-0.73,0.78c-1.61,2.54-3.26,5.05-4.78,7.64c-0.86,1.47-0.58,2.58,0.76,3.6c1.39,1.04,1.62,2.3,1.17,3.9
			c-0.8,2.82-1.98,5.48-3.15,8.14c-2.37,5.39-5.07,10.64-7.1,16.19c-0.75,2.07-0.71,4.11,0.17,6.07c0.7,1.58,0.8,3.13,0.64,4.8
			c-0.36,3.58-1.08,7.1-1.83,10.61c-0.75,3.53-3.35,5.43-6.35,6.83c-1.94,0.9-3.98,1.4-6.21,0.97c-1.65-0.32-3.32,0.08-4.91,0.62
			c-4.5,1.52-8.97,3.12-13.47,4.63c-1.16,0.39-2.41,0.55-3.62,0.79c-1.69,0.34-2.99-0.69-4.39-1.31c-3.91-1.73-7.53-4-11.26-6.08
			c-3.56-1.99-7.32-3.31-11.4-3.6c-0.88-0.06-1.66-0.36-2.46-0.66c0,0-0.13-5.55-3.24-5.76c-1.02-0.35-2.04-0.32-3.11-0.21
			c-5.9,0.58-11.59-0.39-17.22-2.15c-7.59-2.38-15.07-5.11-22.63-7.57c-7.09-2.31-14.32-3.68-21.75-4.13
			c-5.97-0.36-11.85-1.28-17.48-3.46c-0.91-0.35-1.77-0.76-2.58-1.31c-1.91-1.28-2.15-2.05-1.43-4.28c0.62-1.91,1.52-3.6,3.1-4.93
			c1.43-1.2,1.63-2.67,0.65-4.25c-1.33-2.15-3.06-4.01-4.65-5.96c-1.1-1.35-2.18-2.7-2.99-4.27c-1.53-2.97-0.17-8.15,3.76-9.21
			c2.35-0.63,3.89-2.32,4.63-4.53c1.97-5.9,3.66-11.88,4.31-18.11c0.2-1.95-0.41-3.64-1.56-5.17c-0.5-0.66-1.08-1.26-1.54-1.95
			c-1.08-1.64-1.19-3.31-0.43-5.18c1.31-3.2,3.52-5.83,5.2-8.79c0.71-1.24,1.38-2.5,1.83-3.88c0.56-1.72,0.05-3.14-1.06-4.4
			c-0.76-0.87-1.6-1.68-2.45-2.46c-2.22-2.01-2.58-4.5-1.93-7.25c1.09-4.67,3.04-9.03,4.79-13.46c1.03-2.62,2.2-5.19,2.95-7.9
			c0.46-1.64,0.61-3.34-0.63-4.78c-0.77-0.9-0.49-1.82-0.1-2.71c0.24-0.56,0.62-1.09,1.02-1.55c3.08-3.6,2.86-7.56,1.27-11.65
			c-0.66-1.71-1.54-3.34-2.17-5.06c-0.87-2.38-0.84-4.77,0.23-7.11c0.6-1.32,1.12-2.68,1.69-4.01c1.28-2.95,1.24-5.93,0.25-8.93
			c-0.51-1.53-0.91-3.08-1.14-4.66c-0.39-2.63,0.45-5.07,1.27-7.51c1.2-3.57,2.89-6.94,4.14-10.48c0.42-1.18,0.7-2.41,1.05-3.62
			c0.43-1.51-0.24-2.83-0.79-4.13c-1.27-2.95-3.16-5.58-4.63-8.43c-0.71-1.38-1.56-2.73-1.59-4.39c-0.02-0.91,0.15-1.73,0.67-2.46
			c1.49-2.07,2.97-4.15,5.16-5.58c0.58-0.38,1.17-0.85,1.53-1.43c0.67-1.06,1.61-1.31,2.75-1.28c2.82,0.08,5.54,0.77,8.28,1.29
			c8.37,1.57,16.63,3.61,24.84,5.85c6.18,1.69,12.22,3.84,18.11,6.35c5.13,2.19,10.28,4.34,15.16,7.08
			c1.61,0.91,3.04,2.02,4.13,3.51c1.65,2.26,3.97,3.26,6.61,3.75c4.15,0.77,8.37,0.85,12.55,1.3c1.17,0.12,2.34,0.28,3.49,0.53
			c0.94,0.2,1.92,0.57,2.44,1.42c1.23,2.01,3.19,1.97,5.06,1.75c2.24-0.26,4.49-0.64,6.74-0.68c3.08-0.05,5.51,1.64,7.77,3.57
			c1.26,1.07,2.56,2.11,3.88,3.1c1.32,1,2.83,1.12,4.25,0.37c1.59-0.84,3.02-0.52,4.41,0.3c1.59,0.94,3.08,2.04,4.67,2.95
			c3.48,2,7.38,2.72,11.25,3.51c6.18,1.27,12.46,2.18,18.38,4.53c5.07,2.01,9.83,4.67,14.61,7.27c2.26,1.23,5.15,3.06,9.03,0.05
			l5.94,4.03c1.98-0.09,2.06,1.85,5.23,3.55c4.58,3.03,9.53,5.35,14.5,7.63c5.48,2.51,11.3,3.81,17.21,4.79
			c9.25,1.53,18.59,2.5,27.82,4.16c1.38,0.25,2.63,0.69,3.55,2.02c0.85,1.23,2.43,1.63,3.83,2.1c5.95,1.99,11.9,3.98,17.86,5.96
			c4.69,1.56,9.22,3.44,13.23,6.44c0.71,0.53,1.22,1.08,1.37,1.85c0.19,1.02,6.66,1.18,6.88,2.19L353.67,169.34z"/>
	</g>
</g>
<g id="Layer_2">
</g>
<g id="Layer_3">
</g>
</svg>
