<?xml version="1.0" encoding="utf-8"?>
<!-- Generator: Adobe Illustrator 23.0.1, SVG Export Plug-In . SVG Version: 6.00 Build 0)  -->
<svg version="1.1" id="Layer_1" xmlns="http://www.w3.org/2000/svg" xmlns:xlink="http://www.w3.org/1999/xlink" x="0px" y="0px"
	 viewBox="0 0 375 373.5" style="enable-background:new 0 0 375 373.5;" xml:space="preserve">
<style type="text/css">
	.st0{fill:none;stroke:#000000;stroke-width:2;stroke-linecap:round;stroke-linejoin:round;stroke-miterlimit:10;}
</style>
<g>
	<path class="st0" d="M61.45,89.01c0.27,0.65,3.05,0.59,2.79,1.47c-0.26,0.86,0.1,1.79,0.6,2.58c2.13,3.41,3.62,7.04,4.25,11.04
		c0.26,1.68,0.94,3.29,1.92,4.71c3.88,5.59,7.22,11.64,12.37,16.21c5.28,4.68,8.84,10.44,11.66,16.77c0.99,2.22,1.86,4.5,1.78,6.98
		c-0.16,4.69,1.26,8.87,3.92,12.67c2.31,3.29,4.74,6.49,7.32,9.58c1.87,2.25,4.25,3.83,6.98,4.88c2.04,0.79,3.79,1.8,4.26,4.22
		c0.1,0.49,0.64,0.99,1.11,1.29c3.82,2.45,4.53,6.34,5.05,10.41c0.58,4.58,1.17,9.18,3.86,13.17c1.54,2.28,3.51,4.19,5.23,6.31
		c3.05,3.76,5.12,8.1,7.61,12.2c1.13,1.86,2.23,3.68,4.39,4.56c1.24,0.51,1.63,1.8,2.1,2.91c0.84,1.96,1.58,3.84,3.72,4.93
		c1.22,0.62,1.7,2.15,2.15,3.5c0.89,2.66,1.71,5.36,2.78,7.95c1.61,3.91,4.61,6.75,7.76,9.45c1.37,1.17,2.7,2.4,3.88,3.75
		c0.84,0.96,1.44,2.2,1.31,3.55c-0.3,2.96,1.23,4.86,3.42,6.52c1.56,1.18,3.19,2.29,4.58,3.7c0.99,1,1.81,2.14,2.04,3.44
		c0.6,3.28,2.53,5.71,4.59,8.12c1.03,1.2,1.96,2.48,2.93,3.73c1.42,1.82,2.02,4.02,2.38,6.18c0.57,3.45,1.94,6.44,3.94,9.26
		c2.12,3,4.26,5.96,6.99,8.45c1.32,1.21,2.88,1.85,4.56,2.25c1.24,0.3,2.4,0.81,3.57,1.31c1.51,0.64,1.73,2.1,2.1,3.42
		c0.97,3.42,1.29,6.98,2.26,10.4c0.69,2.43,1.71,4.67,3.62,6.3c3.54,3.03,5.12,7.05,6.16,11.39c0.19,0.82,0.43,1.63,0.65,2.44
		c1.04,3.84,2.54,4.65,6.32,4.14c5.52-0.74,11-1.83,16.41-3.18c2.49-0.62,3.14-1.46,3.41-4.05c0.14-1.35,0.21-2.71,0.34-4.06
		c0.06-0.67,0.05-1.41,0.49-1.94c1.21-1.45,1.16-3.13,1.15-4.88c-0.02-2.92,1.26-5.57,2.13-8.27c1.67-5.19,3.41-10.35,4.82-15.61
		c0.29-1.08,0.27-2.18-0.15-3.25c-0.48-1.21-0.25-2.35,0.13-3.58c1.48-4.78,3.91-9.16,5.77-13.78c1.15-2.86,2.08-5.68,1.91-8.79
		c-0.03-0.59-0.18-1.21,0.15-1.79c1.81-3.21,0.96-6.67,1.02-10.07c0.04-2.07-0.3-4.45,1.91-5.83c0.9-0.56,1.9-1.07,2.92-1.29
		c3.44-0.72,5.02-3.03,5.86-6.2c1.04-3.9,1.91-7.86,4.04-11.38c1.08-1.79,2.16-3.58,3.25-5.36c1.22-2,1.8-4.19,1.94-6.5
		c0.09-1.45,0.32-2.9,1.18-4.03c1.12-1.47,1.41-3.12,1.05-4.73c-0.73-3.26,0.2-6.27,1.07-9.26c1.22-4.14,2.79-8.13,6.26-11.09
		c1.76-1.5,2.09-3.85,2.59-5.99c0.41-1.73,1.13-3.19,2.46-4.39c2.28-2.07,3.27-4.95,4.54-7.63c0.2-0.42,0.22-0.98,0.17-1.45
		c-0.89-8.04,1.16-15.32,5.15-22.29c2.72-4.76,4.44-10,5.58-15.4c0.09-0.44,0.04-0.94,0.35-1.29c1.28-1.45,1.53-3.29,1.74-5.05
		c0.45-3.72,0.67-7.47,1.02-11.2c0.3-3.14,0.74-6.28,0.93-9.42c0.11-1.79,0.17-3.57,0.34-5.36c0.13-1.4-0.02-2.81,0.15-4.23
		c0.15-1.22-0.06-2.41-0.94-3.42c-0.92-1.05-1.23-2.38-1.13-3.73c0.39-5.18-1.54-9.65-4.07-13.98c-1.99-3.39-3.91-6.82-5.85-10.23
		c-0.4-0.7-0.76-1.46-0.64-2.27c0.33-2.08-0.65-3.71-1.64-5.36c-2.13-3.54-5.23-6.24-7.97-9.25c-1.19-1.31-2.14-2.65-2.14-4.56
		c0-1.03-0.65-1.93-1.27-2.76c-1.39-1.85-2.82-3.68-4.21-5.53c-0.65-0.86-1.12-1.83-1.13-2.92c-0.01-1.14-0.43-2.06-1.14-2.93
		c-4-4.83-8.25-9.42-13.19-13.29c-4.19-3.28-9.14-5.3-13.78-7.83c-0.73-0.4-1.51-0.38-2.27-0.3c-0.66,0.07-1.34,0.22-1.95,0.48
		c-5.75,2.5-11.11,1.27-16.43-1.44c-2.18-1.11-4.34-2.28-6.97-2.36c-2.95-0.1-5.76,0.37-8.08,2.06c-2.39,1.75-4.71,2.27-7.52,1.42
		c-5.5-1.64-10.96-0.89-16.4,0.46c-1.2,0.3-2.44,0.45-3.57,0.99c-0.57,0.27-1.27,0.51-1.6,0.99c-1.68,2.45-4.33,3.31-6.86,4.35
		c-4.8,1.99-9.62,3.93-14.46,5.85c-1.84,0.73-3.64,1.21-5.71,0.42c-1.15-0.44-2.6,0.07-3.86,0.42c-3.29,0.92-6.57,1.86-9.91,2.6
		c-1.45,0.32-2.77,0.18-4.24-0.1c-3.11-0.59-6.13,0.18-8.92,1.71c-2.26,1.24-4.18,2.96-6.16,4.57c-4.15,3.37-9.02,5.35-13.84,7.43
		c-3.26,1.41-6.57,2.71-9.91,3.88c-1.66,0.58-3.38,1.14-5.22,0.09c-0.89-0.51-2.08-0.4-3.22-0.26c-3.67,0.44-7.36,0.67-11.04,1.03
		c-4.77,0.46-9.54,0.88-14.29,1.48c-5.1,0.64-10.23,1.19-15.28,2.23c-0.81,0.17-1.4,0.45-1.78,1.16c-0.28,0.53-0.46,1.15-0.83,1.61
		c-2.27,2.87-3.45,5.61-2.51,8.73"/>
	<path class="st0" d="M64.19,92.09"/>
</g>
</svg>
