<?xml version="1.0" encoding="utf-8"?>
<!-- Generator: Adobe Illustrator 23.0.1, SVG Export Plug-In . SVG Version: 6.00 Build 0)  -->
<svg version="1.1" id="Layer_1" xmlns="http://www.w3.org/2000/svg" xmlns:xlink="http://www.w3.org/1999/xlink" x="0px" y="0px"
	 viewBox="0 0 374.89 373.5" style="enable-background:new 0 0 374.89 373.5;" xml:space="preserve">
<style type="text/css">
	.st0{fill:none;stroke:#000000;stroke-width:2;stroke-linecap:round;stroke-linejoin:round;stroke-miterlimit:10;}
</style>
<g>
	<path class="st0" d="M81.37,26.5c0.43,1.71-3.58,8.41-2.06,9.28c1.74,0.99,2.11,1.62,1.26,3.41c-1.17,2.45-2.5,4.82-3.89,7.15
		c-0.97,1.62-1.92,3.28-3.54,4.42c-0.78,0.55-1.05,1.46-0.98,2.42c0.19,2.77-1.2,4.68-3.24,6.36c-3.21,2.64-6.78,4.83-9.61,7.94
		c-2.4,2.64-3.93,5.59-3.39,9.27c0.43,2.92,1.33,5.87,3.18,8.03c1.83,2.13,2.21,4.31,1.97,6.75c-0.3,3-0.59,6.01-1.41,8.94
		c-0.62,2.22-1.41,4.33-3.43,5.68c-2.65,1.77-2.95,4.31-2.44,7.16c0.51,2.87,1.16,5.72,1.42,8.62c0.24,2.69-0.53,5.29-1.92,7.62
		c-1.08,1.8-2.29,3.52-3.53,5.23c-2.26,3.12-4,6.57-5.2,10.23c-2.73,8.29-5.49,16.58-7.19,25.18c-0.45,2.27-0.88,4.49-0.34,6.83
		c0.77,3.28-0.13,6.42-0.93,9.59c-0.95,3.73-2.16,7.4-2.78,11.21c-0.49,2.99-0.01,5.97,0.2,8.93c0.1,1.33,1.29,2.03,2.4,2.6
		c3.42,1.76,6.89,3.37,10.56,4.57c0.43,0.14,0.84,0.37,1.3,0.3c1.88-0.28,3.24,0.54,4.4,1.95c2.36,2.87,5.36,4.47,9.08,5.11
		c3.86,0.66,7.14,2.8,10.25,5.14c4.97,3.72,9.75,7.67,14.44,11.72c1.57,1.36,3.08,2.81,3.63,5.01c0.37,1.49,1.7,2.08,3.05,2.62
		c3.78,1.53,7.79,2.11,11.71,3.07c2.13,0.52,4.27,1.02,6.35,1.76c1.65,0.59,2.92,1.45,3.57,3.12c0.99,2.56,3.36,3.57,5.54,4.69
		c3.69,1.89,7.44,3.65,11.21,5.37c2.96,1.36,5.74,2.96,8.12,5.21c1,0.94,2.13,1.52,3.57,1.48c1.83-0.05,3.04,1.18,4.04,2.44
		c2.39,3.03,5.29,5.45,8.65,7.26c2.3,1.24,4.75,2.2,7.13,3.28c4.61,2.1,9.37,3.96,13.47,7.01c2.71,2.01,4.79,4.66,6.69,7.44
		c1.2,1.74,2.5,3.41,4.03,4.9c1.09,1.05,2.28,1.48,3.75,1.13c5.81-1.37,10.64,0.54,15.14,4.19c5.46,4.42,11.05,8.7,16.73,12.84
		c6.49,4.75,13.59,8.48,20.95,11.72c0.66,0.29,1.37,0.58,2.11,0.49c3.18-0.42,5.56,1.15,7.8,3.09c2.96,2.58,5.72,5.42,9.11,7.46
		c2.45,1.48,4.99,2.89,7.79,3.56c2.25,0.54,4.12,1.61,5.86,3.1c3.46,2.96,4.59,2.63,6.14-1.61c1.01-2.78,2.64-4.84,5.36-6.22
		c2.68-1.36,5.4-2.62,8.02-4.12c1.86-1.07,2.65-2.32,2.62-4.44c-0.03-1.86-0.35-3.67-0.41-5.52c-0.07-2.27,0.39-4.4,1.69-6.15
		c4.85-6.51,6.65-14.17,8.58-21.8c0.5-1.97,0.84-3.97,0.82-6.01c-0.02-1.4,0.5-2.56,1.63-3.41c0.62-0.47,1.43-0.93,1.57-1.64
		c0.42-2.07,1.21-3.79,3.13-4.88c0.64-0.36,0.4-1.1,0.3-1.61c-0.22-1.12-0.59-2.21-1.08-3.27c-1-2.11-0.56-3.52,1.12-4.7
		c0.06-0.04,0.1-0.12,0.16-0.16c3.93-2.06,3.86-5.57,3.42-9.27c-0.24-2.05-0.57-4.09-0.51-6.17c0.03-1.27,0.55-2.36,1.16-3.41
		c1.79-3.12,3.99-5.97,6.01-8.94c1.4-2.07,2-4.38,2.1-6.83c0.04-0.97-0.31-1.77-1.11-2.46c-2.12-1.83-2.91-2.15-1.33-6.16
		c1.16-2.96,2.79-5.72,3.79-8.76c0.51-1.55,0.67-2.88-0.35-4.25c-0.52-0.7-0.5-1.57-0.52-2.43c-0.1-5.03,0.79-9.98,1.35-14.95
		c0.12-1.04,0.35-2.23,1.28-2.91c1.8-1.3,1.36-3.02,0.76-4.55c-1.21-3.09-2.62-6.11-4.05-9.1c-0.34-0.7-0.66-1.42-0.92-2.14
		c-0.54-1.53-0.63-3.06,0.62-4.38c0.69-0.73,0.86-1.71,0.63-2.59c-1.16-4.25,0.52-7.53,3.26-10.59c2.46-2.74,4.84-5.57,7.14-8.45
		c1.24-1.55,2.19-3.32,2.96-5.17c1.05-2.51,0.69-4.76-1-6.83c-1.17-1.43-2.38-2.82-3.57-4.23c-0.22-0.27-0.41-0.57-0.66-0.81
		c-2.93-2.83-1.37-5.56,0.17-8.29c1.48-2.62,5.4-3.94,5.49-7.02c0.26-8.86-5.93-16.19-5.29-18.44"/>
</g>
</svg>
